HIERARCHY
ROOT root
{
	OFFSET 0.000000 0.000000 0.000000
	CHANNELS 6 Xposition Yposition Zposition Zrotation Yrotation Xrotation
	JOINT lhip
	{
		OFFSET 0.058581 -0.082280 -0.017664
		CHANNELS 3 Zrotation Yrotation Xrotation
		JOINT lknee
		{
			OFFSET 0.043451 -0.386469 0.008037
			CHANNELS 3 Zrotation Yrotation Xrotation
			JOINT lankle
			{
				OFFSET -0.014790 -0.426874 -0.037428
				CHANNELS 3 Zrotation Yrotation Xrotation
				JOINT ltoe
				{
					OFFSET 0.041054 -0.060286 0.122042
					CHANNELS 3 Zrotation Yrotation Xrotation
					End Site
					{
						OFFSET 0.000000 0.000000 0.000000
					}
				}
			}
		}
	}
	JOINT rhip
	{
		OFFSET -0.060310 -0.090513 -0.013543
		CHANNELS 3 Zrotation Yrotation Xrotation
		JOINT rknee
		{
			OFFSET -0.043257 -0.383688 -0.004843
			CHANNELS 3 Zrotation Yrotation Xrotation
			JOINT rankle
			{
				OFFSET 0.019056 -0.420046 -0.034562
				CHANNELS 3 Zrotation Yrotation Xrotation
				JOINT rtoe
				{
					OFFSET -0.034840 -0.062106 0.130323
					CHANNELS 3 Zrotation Yrotation Xrotation
					End Site
					{
						OFFSET 0.000000 0.000000 0.000000
					}
				}
			}
		}
	}
	JOINT lowerback
	{
		OFFSET 0.004439 0.124404 -0.038385
		CHANNELS 3 Zrotation Yrotation Xrotation
		JOINT upperback
		{
			OFFSET 0.004488 0.137956 0.026820
			CHANNELS 3 Zrotation Yrotation Xrotation
			JOINT chest
			{
				OFFSET -0.002265 0.056032 0.002855
				CHANNELS 3 Zrotation Yrotation Xrotation
				JOINT lowerneck
				{
					OFFSET -0.013390 0.211636 -0.033468
					CHANNELS 3 Zrotation Yrotation Xrotation
					JOINT upperneck
					{
						OFFSET 0.010113 0.088937 0.050410
						CHANNELS 3 Zrotation Yrotation Xrotation
						End Site
						{
							OFFSET 0.000000 0.000000 0.000000
						}
					}
				}
				JOINT lclavicle
				{
					OFFSET 0.071702 0.114000 -0.018898
					CHANNELS 3 Zrotation Yrotation Xrotation
					JOINT lshoulder
					{
						OFFSET 0.122921 0.045205 -0.019046
						CHANNELS 3 Zrotation Yrotation Xrotation
						JOINT lelbow
						{
							OFFSET 0.255332 -0.015649 -0.022946
							CHANNELS 3 Zrotation Yrotation Xrotation
							JOINT lwrist
							{
								OFFSET 0.265709 0.012698 -0.007375
								CHANNELS 3 Zrotation Yrotation Xrotation
								End Site
								{
									OFFSET 0.000000 0.000000 0.000000
								}
							}
						}
					}
				}
				JOINT rclavicle
				{
					OFFSET -0.082954 0.112472 -0.023707
					CHANNELS 3 Zrotation Yrotation Xrotation
					JOINT rshoulder
					{
						OFFSET -0.113228 0.046853 -0.008472
						CHANNELS 3 Zrotation Yrotation Xrotation
						JOINT relbow
						{
							OFFSET -0.260127 -0.014369 -0.031269
							CHANNELS 3 Zrotation Yrotation Xrotation
							JOINT rwrist
							{
								OFFSET -0.269108 0.006794 -0.006027
								CHANNELS 3 Zrotation Yrotation Xrotation
								End Site
								{
									OFFSET 0.000000 0.000000 0.000000
								}
							}
						}
					}
				}
			}
		}
	}
}
MOTION
Frames: 17
Frame Time: 0.033333
1.987019 0.636949 0.984263 -93.402905 2.862504 83.738552 2.895598 -2.743027 5.709607 -2.987176 -8.673027 13.222985 4.075045 10.563111 -21.939267 0.000000 -0.000000 0.000000 2.023536 -2.367934 6.150476 2.908556 -3.020241 9.952575 4.019781 -3.287972 -14.383837 0.000000 -0.000000 0.000000 -0.983346 3.708182 5.888838 2.805392 -1.153476 3.849797 0.992740 0.606963 2.643487 2.001995 3.121479 1.968367 -0.347148 -3.928775 7.612253 -23.341936 5.775401 2.444643 -64.918804 -2.035153 9.463344 12.207867 -24.135334 14.830568 -10.467479 -8.200012 -1.208256 25.732701 -4.772948 1.473226 62.274472 1.581917 7.608279 -21.018200 21.894992 1.889284 8.326924 2.960727 1.996023 
1.988122 0.636918 0.984318 -93.600382 2.830378 83.537785 2.997539 -2.571320 5.972227 -3.142020 -8.582769 13.081835 3.457462 11.021227 -23.185670 0.000000 -0.000000 0.000000 2.005717 -2.134992 6.230015 2.922902 -2.967040 10.003690 4.290328 -3.463429 -14.389760 0.000000 -0.000000 0.000000 -1.154039 3.688764 6.007745 2.869430 -1.013590 3.879219 1.047461 0.617373 2.700781 2.395762 2.832678 2.392799 -0.585747 -4.357120 9.450103 -23.310384 5.610895 2.654083 -65.202611 -2.112878 9.863784 12.375281 -24.320701 14.192702 -9.916627 -8.370048 -1.532672 25.693932 -4.318174 1.669128 62.378743 1.459453 7.876708 -20.190626 22.355913 0.799236 8.106339 3.836358 -0.387716 
1.989379 0.636961 0.984426 -93.787146 2.887639 83.260667 3.056062 -2.474692 6.244483 -2.997111 -8.468256 13.177638 2.420432 11.344651 -24.769646 0.000000 -0.000000 0.000000 2.137477 -1.920678 6.281350 2.826112 -2.983625 10.319194 4.331503 -3.498259 -14.601402 0.000000 -0.000000 0.000000 -1.133649 3.635053 6.329422 2.812752 -0.953128 3.942044 1.038719 0.682284 2.540805 2.810240 2.811564 3.310509 -0.653346 -4.818755 10.983541 -23.254614 5.302715 3.022403 -65.442629 -2.249873 10.080267 12.777707 -24.859988 13.832984 -10.604142 -8.592664 -1.327028 25.707213 -3.446899 2.098452 62.572806 1.221758 7.901852 -19.030108 22.715009 -0.540892 8.379506 5.328610 -4.276121 
1.990931 0.636761 0.984658 -93.754685 2.965999 82.939461 3.058491 -2.119186 6.454937 -2.791309 -8.703927 13.448621 1.621279 11.452837 -25.511901 0.000000 -0.000000 0.000000 2.346360 -1.639505 6.445339 2.659793 -3.161008 10.482948 4.233675 -3.604529 -14.954685 0.000000 -0.000000 0.000000 -1.211136 3.520462 6.817609 2.787127 -1.061649 3.751008 1.080910 0.850393 2.455887 3.326366 2.593847 4.624817 -0.428875 -5.737853 13.260829 -23.066094 4.523755 3.681620 -66.178886 -3.033463 9.999910 13.141122 -24.968731 13.400594 -10.604570 -9.020521 -1.333894 25.585474 -2.328793 2.704038 63.205281 0.325238 7.766157 -19.957712 24.518239 -1.089335 8.196384 5.743925 -5.726794 
1.991704 0.636770 0.984733 -93.760211 3.013821 82.895740 3.133701 -2.038323 6.424885 -2.794416 -8.702202 13.486994 1.619804 11.383401 -25.466220 0.000000 -0.000000 0.000000 2.386451 -1.736794 6.358343 2.642098 -3.158604 10.606401 4.230809 -3.496467 -15.004322 0.000000 -0.000000 0.000000 -1.247106 3.546491 6.905504 2.855418 -1.113254 3.678646 1.089679 0.836998 2.460093 3.471779 2.524616 5.116794 -0.370609 -5.923006 13.953506 -23.062951 4.461435 3.762728 -66.333202 -3.323175 10.109233 13.038039 -25.077172 13.541261 -10.470773 -9.146452 -1.417079 25.541281 -2.345018 2.774004 63.358317 0.387791 7.801985 -20.184594 24.923191 -1.032190 8.084330 5.744746 -5.668904 
1.993276 0.636685 0.984747 -93.671157 3.073984 82.801208 3.227276 -2.104781 6.398840 -2.840229 -8.658111 13.494562 1.694702 11.224946 -25.390472 0.000000 -0.000000 0.000000 2.428563 -1.855943 6.261510 2.626359 -3.219634 10.746390 4.222530 -3.424723 -14.902276 0.000000 -0.000000 0.000000 -1.312171 3.590960 7.039874 2.987264 -1.238060 3.617172 1.043460 0.774008 2.512360 3.810104 2.217436 6.064911 -0.279490 -6.381353 15.160789 -23.046640 4.464451 3.769545 -66.482088 -3.964101 10.341252 12.686071 -25.558297 13.991651 -10.383567 -9.244202 -1.228494 25.431175 -2.544347 2.747905 63.657830 0.548290 7.981999 -20.674946 25.665611 -0.793451 7.964618 5.502351 -5.060959 
1.994660 0.636497 0.984603 -93.716823 3.089777 82.807754 3.287811 -2.092112 6.424767 -2.882075 -8.637050 13.256354 1.796645 11.183473 -25.280149 0.000000 -0.000000 0.000000 2.393479 -1.965417 6.113741 2.627245 -3.290060 10.777090 4.190206 -3.268664 -14.733225 0.000000 -0.000000 0.000000 -1.374277 3.594200 7.015213 3.068911 -1.283143 3.602153 0.976326 0.788938 2.578563 4.093441 1.799825 6.871492 -0.272206 -6.901759 16.471263 -22.977586 4.513084 3.907473 -66.629017 -4.716329 10.561405 12.423512 -26.189363 14.337251 -10.371952 -9.366731 -1.141038 25.337207 -2.687084 2.769988 63.907538 0.622933 8.063689 -20.809828 26.299539 -0.578721 8.153144 5.552438 -5.166642 
1.995850 0.636249 0.984450 -93.733127 3.100132 82.750762 3.239748 -2.059237 6.310350 -2.794431 -8.629559 13.452941 1.872036 11.160353 -25.335151 0.000000 -0.000000 0.000000 2.317221 -2.120527 6.089246 2.673748 -3.365120 10.779353 4.274904 -3.060641 -14.675488 0.000000 -0.000000 0.000000 -1.419256 3.638192 7.000322 3.114275 -1.344295 3.637902 0.939173 0.801465 2.608393 4.288025 1.652470 7.808778 -0.234777 -7.093187 17.692888 -22.886813 4.491056 4.052874 -66.834121 -5.345312 10.742649 12.332063 -27.136161 14.372141 -10.581513 -9.135264 -1.281157 25.295624 -2.712223 2.878227 64.150744 0.687853 8.079344 -21.085498 26.606914 -0.567517 8.645290 5.397666 -5.211094 
1.996879 0.636170 0.984548 -93.836348 3.122346 82.649726 3.271565 -2.047061 6.382888 -2.795624 -8.564053 13.372669 1.878387 11.167527 -25.264505 0.000000 -0.000000 0.000000 2.308223 -2.113344 6.117121 2.686199 -3.433280 10.776542 4.320440 -2.898391 -14.593853 0.000000 -0.000000 0.000000 -1.447537 3.617864 6.998088 3.150854 -1.324069 3.716351 0.877599 0.834226 2.701365 4.585098 1.371834 8.451990 -0.198733 -7.531027 18.779608 -22.948504 4.503383 3.999116 -66.797153 -5.908386 11.028329 12.270237 -27.924331 14.276404 -10.791957 -9.238592 -1.290520 25.353795 -2.657321 2.911063 64.273283 0.821572 8.189508 -20.962982 26.385779 -0.674298 9.337598 5.520944 -5.717907 
1.997829 0.636087 0.984558 -94.010864 3.138938 82.622865 3.306744 -2.035330 6.382011 -2.839866 -8.525364 13.309450 1.955990 11.260233 -25.200666 0.000000 -0.000000 0.000000 2.345609 -2.085483 6.012170 2.628919 -3.386502 10.856601 4.362479 -2.855772 -14.582181 0.000000 -0.000000 0.000000 -1.510260 3.620962 6.918620 3.239797 -1.280819 3.675087 0.852707 0.953202 2.754621 4.703062 1.163584 9.531508 -0.210333 -7.749972 19.702535 -22.945136 4.536190 4.110509 -66.776006 -6.432838 11.224016 12.042311 -28.752716 14.351853 -10.331592 -9.176479 -1.353617 25.355273 -2.712847 3.046025 64.320841 0.950520 8.136853 -21.195708 26.233540 -0.845414 8.901753 5.427614 -5.529135 
1.998672 0.635858 0.984706 -94.133658 3.208827 82.549237 3.347822 -2.059318 6.358814 -2.814061 -8.448625 13.430861 1.976369 11.319405 -25.149436 0.000000 -0.000000 0.000000 2.416217 -2.071474 6.071443 2.608769 -3.343005 10.766309 4.373640 -2.820947 -14.461592 0.000000 -0.000000 0.000000 -1.485350 3.621758 6.979162 3.333751 -1.256246 3.666821 0.864537 0.956838 2.822740 4.825363 0.926216 10.301227 -0.217579 -7.972677 20.370386 -22.922889 4.408185 4.007604 -66.822599 -6.629741 11.530771 11.951030 -29.503933 14.487746 -10.053105 -9.403524 -1.555306 25.279556 -2.709792 3.037004 64.303777 0.847192 8.181289 -21.290549 26.184281 -0.817137 8.570697 5.408060 -5.334109 
1.999464 0.635608 0.984804 -94.296269 3.153902 82.422890 3.313528 -2.135132 6.630524 -2.893695 -8.384340 13.056587 2.048009 11.465736 -24.938648 0.000000 -0.000000 0.000000 2.330202 -1.984222 6.199391 2.637374 -3.325936 10.669757 4.424250 -2.775901 -14.341356 0.000000 -0.000000 0.000000 -1.600893 3.692957 7.009191 3.404445 -1.266531 3.881052 0.903585 0.990717 2.817008 4.862800 0.892467 11.016559 -0.166728 -8.076711 20.884006 -22.795200 4.186331 4.026390 -66.961003 -6.946954 11.797708 11.989415 -30.042497 14.458294 -9.998923 -9.430161 -1.742331 25.203885 -2.648917 3.160652 64.350756 0.817595 8.178865 -21.452772 26.107649 -0.864601 8.718898 5.302227 -5.369933 
2.000487 0.635189 0.984883 -94.340912 3.170570 82.427088 3.246184 -2.229369 6.444189 -2.814634 -8.235757 13.277374 2.076689 11.487020 -24.889018 0.000000 -0.000000 0.000000 2.261535 -2.120602 6.093443 2.700994 -3.291362 10.704226 4.408391 -2.592564 -14.301496 0.000000 -0.000000 0.000000 -1.556021 3.721668 7.049226 3.446629 -1.356321 3.812831 0.893777 0.965583 2.842948 4.861377 0.996614 11.833119 -0.170834 -7.962542 21.610209 -22.730159 4.074305 4.112092 -67.057599 -7.308600 11.953889 12.037318 -30.230285 14.460841 -10.108281 -9.804988 -1.764417 25.174470 -2.608936 3.381211 64.310617 0.864976 8.127557 -21.515534 25.797305 -0.881172 8.691607 5.488702 -5.356054 
2.000962 0.634876 0.985036 -94.351954 3.116920 82.445214 3.180311 -2.277360 6.461765 -2.827265 -8.177289 13.116044 2.156067 11.509436 -24.795717 0.000000 -0.000000 0.000000 2.143040 -2.211597 6.079551 2.719795 -3.306533 10.624007 4.453308 -2.527933 -14.047204 0.000000 -0.000000 0.000000 -1.625922 3.720250 6.816261 3.500878 -1.491591 4.093354 0.904150 0.903050 2.892238 4.942870 0.914391 12.643198 -0.163960 -7.861369 21.952481 -22.760425 3.783313 4.150697 -67.051519 -7.393361 12.123099 12.322721 -30.388320 14.175453 -10.155047 -9.836099 -1.890671 25.179575 -2.582692 3.548512 64.239776 0.907686 8.090564 -21.629432 25.593099 -0.986001 8.924420 5.445794 -5.403949 
2.001192 0.634569 0.985158 -94.270557 3.102721 82.294414 3.110924 -2.273216 6.598778 -2.810928 -8.341995 13.140271 2.134555 11.570689 -24.795421 0.000000 -0.000000 0.000000 2.147997 -2.030116 6.354095 2.729944 -3.310542 10.423504 4.494571 -2.738012 -14.060102 0.000000 -0.000000 0.000000 -1.628885 3.612887 6.937217 3.519662 -1.540929 4.149896 0.889551 0.873598 3.021897 5.023946 1.008845 13.113748 -0.126693 -7.809599 22.362721 -22.662448 3.756297 4.119421 -67.102998 -7.569877 12.202910 12.289882 -30.404793 14.246917 -10.345356 -9.728062 -1.963859 25.105806 -2.686766 3.507153 64.275514 0.797863 8.100699 -21.503730 25.390662 -0.989275 9.123047 5.263994 -5.680390 
2.001800 0.634290 0.985229 -94.303438 3.109735 82.234625 3.129424 -2.133768 6.604360 -2.818869 -8.395853 13.152593 2.127919 11.459855 -24.696663 0.000000 -0.000000 0.000000 2.140662 -2.085105 6.372879 2.720555 -3.263769 10.401954 4.455434 -2.761486 -14.087169 0.000000 -0.000000 0.000000 -1.589587 3.560552 7.070545 3.538607 -1.518347 4.157551 0.900782 0.813102 3.069938 4.984189 1.040203 13.539940 -0.165950 -7.562936 22.667221 -22.645403 3.761024 4.150979 -67.145161 -7.709248 12.255795 12.361819 -30.194512 14.277408 -10.278416 -9.885145 -2.004082 25.076610 -2.804503 3.511800 64.172182 0.802012 8.031485 -20.976850 24.982103 -0.850197 9.291602 5.729449 -6.134067 
2.002368 0.634102 0.985290 -94.207433 3.118051 82.244941 3.144563 -2.116956 6.543084 -2.822350 -8.466268 13.160856 2.177949 11.401493 -24.620095 0.000000 -0.000000 0.000000 2.146505 -2.160982 6.309762 2.717204 -3.221756 10.432325 4.394976 -2.822722 -14.045253 0.000000 -0.000000 0.000000 -1.560940 3.527030 7.078349 3.568780 -1.601589 4.194975 0.904884 0.744084 3.147701 4.951014 1.004120 13.926737 -0.170243 -7.426877 22.776503 -22.632426 3.723362 4.302603 -67.148959 -7.766073 12.226616 12.394089 -30.139882 14.178173 -9.986787 -9.711460 -2.116532 25.028367 -2.866322 3.554984 64.162081 0.751801 7.925554 -20.967059 24.707571 -0.930864 9.057808 5.643934 -6.082354 
